<?xml version="1.0" encoding="utf-8"?>
<!-- Generator: Adobe Illustrator 24.1.0, SVG Export Plug-In . SVG Version: 6.00 Build 0)  -->
<svg version="1.1" xmlns="http://www.w3.org/2000/svg" xmlns:xlink="http://www.w3.org/1999/xlink" x="0px" y="0px"
	 viewBox="0 0 642.85 849.97" style="enable-background:new 0 0 642.85 849.97;" xml:space="preserve">
<style type="text/css">
	.st0{display:none;}
	.st1{fill:#0F0D0F;}
	.st2{fill:#ECEBE5;}
	.st3{fill:none;stroke:#ECEBE5;stroke-width:15;stroke-miterlimit:10;}
	.st4{fill:#DEF3F0;}
	.st5{fill:#1F1E20;}
	.st6{fill:#FFFFFF;}
	.st7{fill:#FEFEFE;}
	.st8{clip-path:url(#SVGID_2_);}
	.st9{fill:#181417;}
	.st10{fill:#E81E15;}
	.st11{fill:#110D0D;}
	.st12{fill:#7B0E0D;}
	.st13{fill:#D48861;}
	.st14{clip-path:url(#SVGID_4_);}
	.st15{fill:#D19A37;}
	.st16{fill:none;stroke:#0F0D0F;stroke-width:48;stroke-miterlimit:10;}
	.st17{fill:#FFFFFF;stroke:#000000;stroke-width:10;stroke-miterlimit:10;}
	.st18{fill:#010203;}
	.st19{fill:#FF0004;}
	.st20{display:none;fill:#7B0E0D;}
</style>
<g id="Capa_2" class="st0">
</g>
<g id="Fondo">
</g>
<g id="Japanese">
	<g>
		<path class="st1" d="M76.16,202.49L76.16,202.49c0.23,0.48,0.52,0.93,0.85,1.35l20.25,32.2c0.01,0.01,0.02,0.03,0.02,0.04
			l9.21,17.06c0.03,0.05,0.06,0.1,0.1,0.14l9.99,10.48c0.05,0.05,0.11,0.1,0.18,0.13l54.62,27.77c0.03,0.01,0.06,0.03,0.08,0.04
			l60,20.77c0.23,0.08,0.48,0.03,0.66-0.13l21.16-18.48l28.99-45.51c0.36-0.56,1.23-0.31,1.23,0.36l0.03,50.54
			c0,0.03,0,0.07-0.01,0.1l-5.83,39.12c0,0.03-0.01,0.06-0.02,0.1l-9.13,29.9c-0.24,0.77,0.84,1.22,1.22,0.51l5.09-9.53
			c0.37-0.69,1.42-0.29,1.23,0.47l-2.61,10.51c-0.19,0.75,0.84,1.16,1.23,0.49l5.15-9.1c0.41-0.72,1.5-0.2,1.2,0.57l-8.14,20.47
			c-0.31,0.78,0.82,1.3,1.21,0.55l2.89-5.6c0.39-0.75,1.52-0.23,1.21,0.55l-9.19,23.34c-0.31,0.78,0.8,1.29,1.2,0.56l18.18-33.17
			c0.41-0.74,1.53-0.19,1.19,0.59l-3.02,6.9c-0.33,0.75,0.72,1.31,1.17,0.63l24.18-37.02c0.01-0.01,0.02-0.02,0.02-0.04l18.26-32.45
			c0.02-0.03,0.03-0.06,0.04-0.09l13.3-35.75c0.02-0.05,0.03-0.1,0.04-0.16l4.15-37.38c0.01-0.05,0.01-0.11,0-0.16l-4.65-36.44
			c-0.04-0.35,0.19-0.68,0.54-0.74l73.09-12.93c0.02,0,0.03,0,0.05-0.01c0.9-0.09,28.56-2.83,38.12,1.08
			c0.02,0.01,0.05,0.02,0.07,0.03l1.49,0.78c0.02,0.01,0.05,0.03,0.07,0.04c1.04,0.7,0.96,0.62,0.03-0.04
			c2.72-0.64,10.54-8.63,11.1-9.21c0.02-0.02,0.04-0.04,0.06-0.07c0.51-0.71,8.94-12.18,20.63-7.17c0.21,0.09,0.45,0.08,0.64-0.05
			c0.36-0.25,0.7-0.52,1.01-0.81c0.12-0.11,0.2-0.27,0.21-0.43c0.07-0.83-0.1-1.76-0.36-2.58c-0.03-0.1-0.08-0.18-0.15-0.25
			c-3.82-4.15-9.6-9.41-13.84-12.48c-0.04-0.03-0.07-0.06-0.11-0.1c-0.6-0.73-1.44-1.32-2.64-1.69c-3.93-1.21-8.61-4.27-12.01-6.75
			c-0.12-0.09-0.2-0.21-0.24-0.35c-0.56-1.9-2.31-3.28-4.39-3.28c-0.73,0-1.43,0.18-2.04,0.48c-0.04,0.02-0.08,0.03-0.12,0.04
			l-16.58,4.05c-0.01,0-0.03,0.01-0.04,0.01l-25.02,4.57c-0.01,0-0.02,0-0.04,0.01l-24.5,3.14l-49.08,7.78
			c-0.37,0.06-0.72-0.2-0.76-0.57L332,110.56c-0.05-0.36,0.21-0.7,0.58-0.74l27.4-3.52c0.05-0.01,0.1-0.01,0.15,0
			c4.09,0.43,6.47-0.01,20.67-0.01c4.92,0,10.56-4.78,16.32-4.76c4.44,0.02,10.32-0.02,14.62,0c11.98,0.07,21.35,3.7,23.83,4.75
			c0.35,0.15,0.75-0.03,0.88-0.39l3.41-9.6c0.06-0.16,0.05-0.33-0.02-0.49l-2.05-4.75c-0.05-0.12-0.13-0.22-0.24-0.29l-26.74-18.02
			c-0.02-0.01-0.04-0.03-0.07-0.04l-34.33-17.72c-0.18-0.09-0.38-0.1-0.57-0.02l-11.28,4.83c-0.07,0.03-0.15,0.05-0.23,0.05
			l-45.41,2.05c-0.31,0.01-0.59-0.19-0.67-0.48l-2.96-10.5c-0.04-0.16-0.15-0.3-0.29-0.38L250.33,9.89
			c-0.12-0.07-0.21-0.18-0.26-0.31l-3.82-9.18c-0.15-0.35-0.55-0.51-0.9-0.35l-11.5,5.37c-0.23,0.11-0.38,0.34-0.38,0.6v20.21
			c0,0.14,0.05,0.28,0.13,0.4c1.51,2.02,15.51,21.03,19.7,37.44c0.1,0.4-0.19,0.79-0.6,0.83l-30.86,2.44
			c-0.04,0-0.08,0.01-0.11,0.02l-77.31,19.95c-0.15,0.04-0.3,0.02-0.44-0.04l-14.55-6.47c-0.16-0.07-0.35-0.08-0.52-0.01
			l-11.64,4.65c-0.34,0.14-0.51,0.52-0.37,0.87l8.02,20.06c0.05,0.12,0.13,0.22,0.24,0.3l33.11,23.18c0.07,0.05,0.14,0.08,0.22,0.1
			l52.98,13.24c0.19,0.05,0.39,0.01,0.55-0.1l25.25-18.08c0.03-0.02,0.05-0.03,0.08-0.05l16.87-8.77c0.06-0.03,0.13-0.05,0.2-0.07
			l11.75-1.94c0.37-0.06,0.72,0.2,0.77,0.57l8.91,66.35c0.04,0.32-0.16,0.63-0.47,0.73L141.4,221.89l-2.24,0.72
			c-0.16,0.05-0.32,0.04-0.47-0.02c-18.06-7.89-38.92-21.79-47.14-27.46c-0.04-0.03-0.08-0.06-0.11-0.1
			c-0.9-1.04-2.09-1.88-3.48-2.42l0,0v0c-1.11-0.43-2.33-0.67-3.62-0.67c-4.89,0-8.85,3.41-8.85,7.63
			C75.48,200.6,75.72,201.59,76.16,202.49L76.16,202.49z"/>
		<path class="st1" d="M57.55,343.45l19.4,4.38l0.01,0c1.86,0.55,4,0.87,6.28,0.87c0.81,0,1.6-0.04,2.37-0.12l1.4,0.12l7.99-1.37
			l7.54-2.28l7.08-5.94l0.91-7.54l6.08-5.84c1.04-0.64,1.69-1.52,1.69-2.49c0-1.01-0.7-1.93-1.83-2.57
			c-3.09-4.15-9.77-12.27-17.31-16.28c-3.51-4.08-7.32-7.25-9.77-9.1l0,0l-5.99-5.69l-2.61-3.68l-13.56-16.46
			c-0.16-0.3-0.4-0.57-0.67-0.82l-0.05-0.06l-0.01,0.01c-0.73-0.63-1.78-1.03-2.96-1.03c-2.21,0-4,1.38-4,3.08
			c0,0.87,0.47,1.65,1.22,2.21l0,0v0.51l-0.64,0.72h-1.23c-1.13-0.11-3.78-1.08-4.88-1.45l0,0c-0.76-0.28-1.61-0.44-2.51-0.44
			c-3.34,0-6.05,2.2-6.05,4.91c0,0.49,0.09,0.97,0.26,1.41c0.89,5.59,3.06,26.95-11.68,46.2c-2.02,2.64-2.98,4.47-3.11,5.66
			l-13.33,24.26L0,386.38l28.32-44.53l-8.52,16.58l8.98-12.24l-21.7,39.05l21.47-30.6l16.9-10.28L57.55,343.45z"/>
		<path class="st1" d="M474.86,276.33c-3.53-4.31-6.45-6.47-8.86-7.11c-1.39-1.54-2.73-2.61-3.54-3.21
			c-5.51-4.12-15.13-4.74-15.13-4.74c-7.82-2.97-16.65-10.38-22.26-14.43c-13.29-9.62-22.37-24.1-35.67-33.71
			c-1.39-1.01-3.34-0.7-4.39,0.66l-2.73,3.53c-0.12,0.16-0.26,0.3-0.4,0.43l-2.67,2.38c-0.68,0.61-1.07,1.48-1.07,2.39v4.38
			c0,0.08,0.01,0.16,0.01,0.24c0.12,1.6,1.46,18.79,2.54,20.68c0.76,1.33,2.99,11.09,4.37,17.36l1.25,13.62
			c0.03,0.29,0.02,0.58-0.02,0.87l-1.28,9.53c-0.14,1.03,0.2,2.07,0.92,2.83l1.69,1.78l3.25,1.84l3.25-1.7l0.37-0.43
			c1-1.16,2.88-0.74,3.31,0.72l4.96,17.11l7.22,14.29l0.86,1.14l1.47,2.41c0.06,0.09,0.13,0.17,0.21,0.24l8.08,6.13l8.91,9.9
			l12.59,10.33l5.66,3.68l6.61,2.41l8.1,4.24l17.83,11.6l9.96,3.82l10.84,1.98l9.2-0.99l6.65-0.99l7.5-1.41l5.38-2.83l4.81-2.48
			l3.68-3.89l5.8-10.33l3.68-6.51l3.11-7.36l3.8-4.81c0,0,18.19-17.63,23.48-17.63s33.5-2.52,33.5-2.52l-22.58-1.44
			c-0.22-0.01-0.23-0.33-0.01-0.36l14.06-2.03l-27.04-0.48c-0.4-0.01-0.76-0.24-0.93-0.61l-1.15-2.51
			c-0.18-0.39,0.09-0.85,0.52-0.87l34.31-1.93l-39.71-1.52c-0.27-0.01-0.3-0.39-0.03-0.44l19.29-3.78l-19.12-0.16
			c-0.22,0-0.25-0.32-0.03-0.36l37.14-7.13h-61C545.39,298.14,493.87,299.57,474.86,276.33z"/>
		<circle class="st1" cx="391.8" cy="303.72" r="1.48"/>
		<path class="st1" d="M395.19,310.72c0.11-7.52-3.92,1.17-3.92,1.17S395.08,318.24,395.19,310.72z"/>
		<path class="st1" d="M596.56,766.22c-0.02,0-0.03-0.01-0.05-0.01c0.37-0.02,0.75-0.06,1.16-0.13c2.36-0.37,0.88-0.29-2.16-0.03
			c-0.78-0.11-1.63-0.22-2.53-0.33c-2.82-1.14-3.25-3.82-3.25-3.82l-0.41,0.11l0.03-0.41l0.38,0.3l31.94-4.88l-20.5-0.7l32.63-4.18
			l-43.51-1.26l24.68-3.77l-24.13-0.98l24.96-3.35h-20.68l20.68-5.16l-79.21-0.84l-82.44,0.84c0,0-14.49-4.46-15.6-13.81
			c-0.17-1.4-0.42-2.07-0.72-2.2c0,0-32.3-15.88-41.22-24.15c-6.3-5.85-17.69-12.02-23.82-15.13c-0.78-1.01-1.92-1.73-3.23-1.97
			c-0.01-0.01-0.01-0.03-0.02-0.04c-0.03,0.01-0.06,0.01-0.1,0.02c0,0,0,0-0.01,0c-0.27-0.04-0.55-0.07-0.84-0.07
			c-0.92,0-1.79,0.24-2.54,0.65c-7.66,0.51-11.15-5.47-19.74-14.39c-9.76-10.13-10.08,2.55-10.08,2.55l-4.53,5.27l0,0.01
			c-2.53,1.87-4.2,5.11-4.2,8.8c0,0.31,0.02,0.61,0.04,0.91l-0.04-0.02l0.85,10.03l30.7,67.92c0,0,11.89,16.55,17.4,22.5
			c5.52,5.94,90.84,61.97,90.84,61.97l15.71,3.4c0,0,30.14,4.67,69.61-49.66c4.5-6.19,8.29-11.61,11.48-16.35l0,0c0,0,0-0.01,0-0.01
			c0.48-0.72,0.95-1.43,1.41-2.12c2.46-3.11,8.58-8.83,21.57-11.61c2.26-0.38,4.56-0.74,6.86-1.1c1.32-0.15,2.41-0.29,3.31-0.43
			c0.01-0.03,0.03-0.05,0.05-0.08c22.77-3.42,45.57-5.77,45.57-5.77L596.56,766.22z"/>
		<path class="st1" d="M509.3,662.62c0.57,0.2,1.12,0.4,1.68,0.6c8.54-1.16,16.71-3.95,22.89-10.48c1.9-2.01,3.39-4.24,4.57-6.63
			c-0.01-0.01-0.02-0.01-0.03-0.02c0.24-0.27,0.32-0.69,0.08-1.05l-2.74-4.02l-2.07-2.9c-0.36-0.5-0.08-1.2,0.52-1.33l5.63-1.16
			c0.61-0.13,0.88-0.84,0.51-1.34l-2.32-3.14c-0.38-0.52-0.07-1.27,0.58-1.35l6.15-0.79c0.6-0.08,0.93-0.73,0.64-1.25
			c-2.02-3.61-9.99-15.1-31.44-19.21c-0.47-0.26-0.93-0.52-1.38-0.82c-0.21-0.01-0.41-0.02-0.63-0.03
			c-18.16-0.87-25.18-7.72-27.9-12.81c-0.49-2.1-1.07-3.95-1.72-5.57c0,0,0-0.01,0-0.01l0,0.01c-3.22-8.12-7.82-10.68-7.82-10.68
			l-42.16,12.51c-1.35,0.02-2.77,0.08-4.25,0.16l0,0l0,0c-10.52,0.6-24.32,2.77-42.44,7.42c-42.14,10.8-61.37,11.67-70.16,10.23
			c-1.83-6-8.28-28.64-5.97-42c2.69-15.49,3.96-42.94,3.96-42.94l-1.27-12.59l5.94-6.65l11.32-7.36l16.27-0.42l33.96,20.99
			c1.07,2,1.84,3.63,1.84,3.63l-6.79,9.06l-22.78,28.84l-17.4,19.84l19.05-18.36c0.17-0.16,0.45-0.13,0.57,0.08l0.36,0.6
			c0.1,0.18,0.29,0.29,0.49,0.3l0.88,0.06c0.34,0.02,0.5,0.43,0.26,0.68l-27.84,28.95l25.75-16.41l13.02-5.66l17.54-5.66
			c15.03-2.03,38.54-5.54,40.01-6.39c0,0,0,0,0,0c27.84-5.27,2.01-20.63,2.01-20.63l-14.29-12.17c-5.57-1.86-9.26-8.46-11.24-13.15
			c0.19-1.64,0.87-3.08,1.48-4.25c0,0,14.15-4.67,11.6-11.04s-51.87-37.92-51.87-37.92c0.73,1.49-0.5,2.89-1,3.36
			c-0.07-0.02-0.13,0.03-0.19,0.17c0,0-0.04,0.02-0.13,0.07c-2.66,0.84-47.77-0.66-62.27-1.17c-17.13-20.46-41.25-27.76-46.12-34.56
			c-3.48-4.85-8.83-9.98-10.29-12.47c-0.56-0.95-1.58-1.54-2.68-1.54h-7.79c-0.81,0-1.56,0.45-1.93,1.17l-4.4,8.42
			c0,0,4.52,10.52,2.95,12.69c-1.53,2.13,1.51,35.66,1.51,35.66l2.49,0.9c-11.71,2.87-31.99,5.25-31.99,5.25l-25.26-0.17l-1.05-0.25
			l-10.4-1.27l-3.4-3.4c0,0-10.19-6.37-7.22,5.73l19.1,35.02l21.22,34.81c0,0,3.82,10.82,15.07,7.22c11.25-3.61,5.94-4.24,5.94-4.24
			s5.73-0.35,8.07,1.41c2.33,1.77,12.52-6.51,12.52-6.51l8.49-5.52l2.12-1.27c0,0,2.12-2.97,8.07,11.25
			c2.93,7.01,5.19,8.81,6.72,8.83c1.06,5,2.39,9.9,3.68,10.7c2.27,1.4,7.27,34.4,8.97,46.05l-137.16,35.23
			c-3.61-0.64-22.45,6.98-41.17-6.58c-18.72-13.56-12.73,3.61-12.73,3.61c-3.22,8.7,1.34,19.53,1.34,19.53s15.28,13.87,30.14,26.32
			c14.86,12.45,18.82,31.18,25.33,31.23c6.51,0.04,22.07,0.61,24.2-1.23c2.12-1.84,4.17,2.66,1.76,4.97L44.38,842.65l35.55-30.85
			l-16.75,19.98l23.5-19.68l-36.43,35.55c0,0,75.79-61.69,82.55-62.28c6.76-0.59,44.36-17.33,73.44-19.39
			c4.48-0.32,9.22-4.69,11.16-6.29c0.01-0.01,0.02-0.02,0.03-0.03c13.25-8.9,7.9-17.55,6.44-22.18
			c-0.69-2.19-11.07-11.13-23.43-21.18c-0.02-0.09-0.05-0.18-0.07-0.27c-0.12-0.47-0.25-0.94-0.39-1.41l80.84-37.2
			c3.04,16.02,5.53,41.13,0.12,69.87c-9.34,49.52-40.75,47.82-40.75,47.82l16.7,3.68c0,0,10.19-6.79,24.05-8.77
			c10.36-1.48,31.22-82.73,41.11-123.73C326.52,661.32,373.7,613.97,509.3,662.62z"/>
		<path class="st1" d="M158.92,528.42h-1.2c-0.44,0-0.81,0.32-0.88,0.76l-0.74,4.86c-0.05,0.31-0.25,0.57-0.55,0.69
			c-3.13,1.25-8.72,3.35-9.95,2.82c-1.73-0.74-9.87,1.97-10.11,4.19c-0.23,2.06-1.09,7.71-1.22,8.53c-0.01,0.07-0.01,0.14-0.01,0.21
			c0.14,1.7,2.19,23.91,13.96,38.08c0.06,0.07,0.11,0.16,0.14,0.25l4.56,12.43c0.05,0.13,0.12,0.24,0.22,0.33l6.5,6.27
			c0.17,0.16,0.39,0.25,0.62,0.25h7.69c0.22,0,0.43,0.08,0.59,0.22l3.82,3.37c0.08,0.07,0.18,0.13,0.28,0.17l4.41,1.63
			c0.08,0.03,0.15,0.07,0.22,0.12l4.15,3.06c0.27,0.2,0.63,0.23,0.93,0.08l6.7-3.35c0.14-0.07,0.3-0.1,0.46-0.09l3.08,0.21
			c0.24,0.02,0.48-0.07,0.66-0.23l2.14-1.95c0.19-0.17,0.29-0.41,0.29-0.66v-4.01c0-0.44,0.33-0.82,0.76-0.88l2.63-0.38
			c0.04-0.01,0.08-0.01,0.13-0.01h2.74c0.11,0,0.21-0.02,0.31-0.06l3.22-1.21c0.35-0.13,0.58-0.46,0.58-0.83v-3.03
			c0-0.34,0.19-0.64,0.49-0.8l1.67-0.83c0.2-0.1,0.35-0.27,0.43-0.48l1.05-2.73c0.04-0.1,0.06-0.21,0.06-0.32v-2.38
			c0-0.26-0.11-0.51-0.31-0.68l-6.35-5.41c0,0-7.89-6.41,1.73-11.59c7.9-4.25,13.81-5.01,15.66-5.15c0.38-0.03,0.7-0.28,0.8-0.65
			c0.59-2.14,2.04-8.78-4.37-3.08c-1.12,0.99-2.5,1.95-4.03,2.87c0.8-0.57,0.22-1.83-0.73-1.59c-5.73,1.48-14.64,3.59-14.97,2.42
			c-0.49-1.73-11.1-3.21-17.02-3.45c-5.76-0.24-11.29-15.2-11.58-16c-0.01-0.02-0.02-0.05-0.03-0.07l-3.91-8.32
			c-0.01-0.02-0.02-0.04-0.03-0.06l-1.96-5.15c0,0-1.48-3.45-2.47-3.21c-0.72,0.18-0.52-2.65-0.36-4.2
			C159.86,528.88,159.45,528.42,158.92,528.42z"/>
	</g>
</g>
<g id="Capa_5">
</g>
<g id="Capa_6">
</g>
</svg>
